<mxfile host="drawio-plugin" modified="2021-10-19T19:53:14.334Z" agent="5.0 (Macintosh; Intel Mac OS X 11_2_3) AppleWebKit/537.36 (KHTML, like Gecko) Chrome/87.0.4280.141 Safari/537.36" version="14.6.6" etag="2wAsStW8LwS5IqXQnGTA" type="embed"><diagram id="RmEftyKehTB1JHlUhrj8" name="Page-1"><mxGraphModel dx="718" dy="1883" grid="1" gridSize="10" guides="1" tooltips="1" connect="1" arrows="1" fold="1" page="1" pageScale="1" pageWidth="850" pageHeight="1100" math="0" shadow="0"><root><mxCell id="0"/><mxCell id="1" parent="0"/><mxCell id="2" value="Websocket&lt;br&gt;Server" style="whiteSpace=wrap;html=1;aspect=fixed;" vertex="1" parent="1"><mxGeometry x="60" y="100" width="400" height="400" as="geometry"/></mxCell><mxCell id="5" style="edgeStyle=orthogonalEdgeStyle;rounded=0;orthogonalLoop=1;jettySize=auto;html=1;exitX=0.5;exitY=0.5;exitDx=0;exitDy=0;exitPerimeter=0;" edge="1" parent="1" source="3" target="2"><mxGeometry relative="1" as="geometry"/></mxCell><mxCell id="3" value="Subscriber" style="shape=umlActor;verticalLabelPosition=bottom;verticalAlign=top;html=1;outlineConnect=0;" vertex="1" parent="1"><mxGeometry x="390" y="-60" width="30" height="60" as="geometry"/></mxCell><mxCell id="7" value="&lt;h1&gt;On User Connected&lt;/h1&gt;&lt;p&gt;pass user id&lt;/p&gt;&lt;p&gt;issue subscribe command to particular topics&lt;/p&gt;&lt;p&gt;&lt;br&gt;&lt;/p&gt;&lt;p&gt;&lt;br&gt;&lt;/p&gt;&lt;p&gt;&lt;br&gt;&lt;/p&gt;&lt;p&gt;&lt;br&gt;&lt;/p&gt;" style="text;html=1;strokeColor=none;fillColor=none;spacing=5;spacingTop=-20;whiteSpace=wrap;overflow=hidden;rounded=0;" vertex="1" parent="1"><mxGeometry x="60" y="100" width="300" height="120" as="geometry"/></mxCell><mxCell id="8" value="- Subscribe&lt;br&gt;- UnSubscribe&lt;br&gt;- GetSubscibers(topic)&lt;br&gt;" style="rounded=0;whiteSpace=wrap;html=1;" vertex="1" parent="1"><mxGeometry x="60" y="530" width="400" height="300" as="geometry"/></mxCell><mxCell id="9" value="Subscriber Manager" style="text;html=1;strokeColor=none;fillColor=none;align=center;verticalAlign=middle;whiteSpace=wrap;rounded=0;" vertex="1" parent="1"><mxGeometry x="185" y="630" width="150" height="20" as="geometry"/></mxCell></root></mxGraphModel></diagram></mxfile>